<svg id="Capa_1" enable-background="new 0 0 512 512" height="512" viewBox="0 0 512 512" width="512" xmlns="http://www.w3.org/2000/svg"><path d="m269.014 447.945c-64.592 0-125.501-24.803-171.508-69.841-46.093-45.122-71.478-104.906-71.478-168.341 0-4.195 1.757-8.199 4.844-11.039s7.223-4.257 11.403-3.909l209.047 17.449c8.15-63.18 63.262-112.199 129.82-112.199h115.858c8.284 0 15 6.716 15 15v94.698c0 63.435-25.385 123.219-71.478 168.341-46.006 45.038-106.917 69.841-171.508 69.841z" fill="#efffff"/><path d="m254.741 195.207c-1.518 5.548-2.669 11.242-3.419 17.058l-204.356-17.058h-9.519c-2.428.597-4.697 1.79-6.575 3.518-3.087 2.84-4.844 6.844-4.844 11.039 0 63.435 25.385 123.219 71.478 168.341 46.007 45.038 106.916 69.841 171.508 69.841s125.502-24.803 171.509-69.841c46.092-45.122 71.477-104.907 71.477-168.341v-14.557z" fill="#d7f2f9"/><path d="m393.965 225.207h-.02c-8.284 0-15-6.716-15-15s6.716-15 15-15 15.01 6.716 15.01 15-6.706 15-14.99 15z" fill="#063651"/><path d="m173.96 320.889h-32.34c-78.09 0-141.62-63.53-141.62-141.619v-100.215c0-8.284 6.716-15 15-15h129.695c78.878 0 143.05 64.172 143.05 143.05 0 62.741-51.043 113.784-113.785 113.784z" fill="#d7f2f9"/><path d="m.902 195.207c7.945 70.614 68.016 125.682 140.718 125.682h32.341c62.741 0 113.785-51.043 113.785-113.785 0-4.007-.174-7.973-.499-11.898h-286.345z" fill="#a1e3f9"/><path d="m95.877 214.46h-91.45c2.7 10.52 6.586 20.568 11.498 30h79.953c8.284 0 15-6.716 15-15-.001-8.285-6.716-15-15.001-15z" fill="#2fc1e0"/><path d="m95.877 145.572h-95.877v30h95.877c8.284 0 15-6.716 15-15s-6.715-15-15-15z" fill="#a1e3f9"/></svg>