<svg height="512" viewBox="0 0 64 64" width="512" xmlns="http://www.w3.org/2000/svg"><g id="Receive_email" data-name="Receive email"><path d="m29.22 46.32a4.017 4.017 0 0 0 5.56 0l5.51-5.32 19.517-18.847a3.984 3.984 0 0 0 -2.807-1.153h-50a3.984 3.984 0 0 0 -2.807 1.153l19.517 18.847z" fill="#57a4ff"/><path d="m4.193 59.847 19.517-18.847-19.517-18.847a3.987 3.987 0 0 0 -1.193 2.847v32a3.987 3.987 0 0 0 1.193 2.847z" fill="#bddbff"/><path d="m59.807 59.847a3.987 3.987 0 0 0 1.193-2.847v-32a3.987 3.987 0 0 0 -1.193-2.847l-19.517 18.847z" fill="#bddbff"/><path d="m34.78 46.32a4.017 4.017 0 0 1 -5.56 0l-5.51-5.32-19.517 18.847a3.984 3.984 0 0 0 2.807 1.153h50a3.984 3.984 0 0 0 2.807-1.153l-19.517-18.847z" fill="#9bc9ff"/><path d="m18 25 14 14 14-14h-6v-4-14h-16v14 4z" fill="#ffcd00"/><g fill="#bddbff"><path d="m5.655 60.752c-.065-.024-.136-.036-.2-.063.064.027.135.039.2.063z"/><path d="m4.845 60.361c-.02-.013-.044-.021-.064-.034.019.013.044.021.064.034z"/><path d="m4.193 59.847c.018.018.04.03.059.048-.019-.018-.041-.031-.058-.048z"/><path d="m7 61a3.993 3.993 0 0 1 -.8-.081 3.993 3.993 0 0 0 .8.081z"/></g><path d="m6.2 60.919a3.889 3.889 0 0 1 -.544-.167 4.028 4.028 0 0 0 .544.167z" fill="#9bc9ff"/><path d="m4.781 60.327a4.153 4.153 0 0 1 -.529-.432 4.07 4.07 0 0 0 .529.432z" fill="#9bc9ff"/><path d="m5.455 60.689a3.929 3.929 0 0 1 -.61-.328 3.929 3.929 0 0 0 .61.328z" fill="#9bc9ff"/><path d="m4.193 59.847a3.984 3.984 0 0 0 2.807 1.153h26a33.736 33.736 0 0 1 -22.025-7.7z" fill="#57a4ff"/><path d="m3 37v20a3.987 3.987 0 0 0 1.193 2.847l6.782-6.547c-4.949-4.281-7.975-10-7.975-16.3z" fill="#9bc9ff"/></g></svg>